<svg version="1.1" id="Layer_1" xmlns="http://www.w3.org/2000/svg" xmlns:xlink="http://www.w3.org/1999/xlink" x="0px" y="0px"
	 width="100%" viewBox="0 0 1024 1024" enable-background="new 0 0 1024 1024" xml:space="preserve">
<path fill="#000000" opacity="1.000000" stroke="none" 
	d="
M434.239868,333.154053 
	C419.426086,336.776154 411.669769,347.672089 405.172150,359.696503 
	C404.472504,359.398376 403.958282,359.295227 403.949371,359.158997 
	C403.089325,346.015961 402.756744,332.899994 407.194763,320.210388 
	C412.684845,304.512573 425.076019,295.704071 441.706451,295.695374 
	C483.519867,295.673523 525.333252,295.718842 567.146667,295.681763 
	C576.035889,295.673889 583.277283,298.659393 587.140991,307.042389 
	C591.162354,315.767426 590.383728,324.124817 584.084656,331.786774 
	C575.942139,341.690948 567.920776,351.695587 559.930786,361.723541 
	C557.774780,364.429413 555.237549,366.164764 551.860779,367.150391 
	C541.959412,370.040314 532.125916,373.167694 522.299255,376.306793 
	C516.404053,378.190002 510.429321,380.044678 507.714233,386.543060 
	C507.325714,387.472992 506.480316,388.233368 505.388733,388.201782 
	C497.806244,387.982391 490.297546,387.298431 481.875793,384.420959 
	C496.075714,367.036438 509.691223,350.367401 523.189087,333.842407 
	C522.253357,331.734131 520.719849,332.342194 519.531250,332.340759 
	C493.043945,332.309296 466.556549,332.313263 440.069275,332.367493 
	C438.261597,332.371185 436.454865,332.822296 434.239868,333.154053 
z"/>
<path fill="#000000" opacity="1.000000" stroke="none" 
	d="
M417.346924,461.367828 
	C433.935944,441.402161 450.299438,421.711700 466.774261,401.887268 
	C462.743591,398.140961 459.223480,398.960083 455.720886,401.700165 
	C449.623566,406.470001 442.790009,407.887238 435.511353,405.366089 
	C426.559418,402.265320 421.726318,393.610474 422.750427,383.425446 
	C423.568695,375.287170 430.358185,368.010284 438.352081,366.703857 
	C447.924652,365.139404 456.749878,369.515961 460.255402,378.507050 
	C462.027557,383.052246 464.585083,385.534760 468.974976,387.607971 
	C488.502228,396.830170 496.529266,413.427338 492.358002,434.321503 
	C490.772583,442.262909 486.546997,448.353149 480.211639,453.176727 
	C463.104218,466.201935 443.778564,473.683929 422.513824,476.358307 
	C417.927185,476.935150 413.359283,478.007019 408.218445,476.793518 
	C408.587494,470.049530 413.754913,466.347992 417.346924,461.367828 
M440.189819,375.565338 
	C437.713623,376.250397 435.645935,377.556122 434.018921,379.562317 
	C430.108917,384.383514 430.650696,390.585754 435.357971,394.723907 
	C439.979431,398.786682 446.509003,398.425507 450.474304,393.825653 
	C453.513031,390.300659 453.837006,386.085602 452.141815,382.111511 
	C450.149445,377.440735 446.183105,375.131714 440.189819,375.565338 
z"/>
<path fill="#000000" opacity="1.000000" stroke="none" 
	d="
M561.022766,406.567352 
	C558.239075,405.533661 558.211548,407.952759 557.560120,409.162598 
	C554.472473,414.896637 552.038757,420.940063 550.723389,427.319946 
	C549.606445,432.737457 549.580811,437.710876 553.508240,442.774323 
	C561.048828,452.495972 559.428101,465.568665 550.737122,472.949036 
	C541.815247,480.525482 529.876038,480.328247 521.734741,472.469879 
	C510.526794,461.651520 513.858948,442.271698 528.277100,436.243866 
	C532.488586,434.483124 534.585266,431.937897 535.753235,427.807983 
	C537.778015,420.648041 540.102234,413.572815 542.481140,405.879089 
	C535.698486,407.438568 529.467529,409.097961 523.008728,409.469849 
	C521.247803,409.571259 520.304138,411.315613 519.241943,412.566925 
	C514.964294,417.606171 510.739197,422.690033 505.689209,427.789795 
	C505.712463,415.764343 502.734833,404.883514 494.466583,394.763580 
	C509.912079,394.655853 524.513367,396.774261 538.255432,389.193848 
	C533.353394,386.315155 527.752197,386.854614 522.570740,383.098297 
	C539.288330,376.487244 556.072632,372.837494 572.844177,366.709259 
	C574.603577,386.664612 574.422241,405.806885 575.394226,424.903473 
	C574.940125,425.055573 574.486023,425.207642 574.031860,425.359741 
	C569.766785,419.166290 565.501709,412.972870 561.022766,406.567352 
M526.967224,447.486633 
	C523.212646,452.038086 522.365112,457.017517 525.076172,462.333527 
	C527.259216,466.614136 530.776917,469.258606 535.655273,469.689484 
	C541.582336,470.213074 546.821289,466.792358 548.953674,461.184570 
	C551.072998,455.611206 549.114624,448.961945 544.356750,445.576263 
	C539.042603,441.794678 533.367615,442.257660 526.967224,447.486633 
z"/>
<path fill="#000000" opacity="1.000000" stroke="none" 
	d="
M686.805542,560.828308 
	C704.625977,566.284851 715.143921,578.079956 718.137512,595.875305 
	C721.202515,614.094238 715.603088,629.509338 700.339172,640.540161 
	C680.941528,654.558350 651.384827,650.113831 637.605957,631.415283 
	C623.129944,611.770935 627.057434,582.657166 646.600952,568.000793 
	C658.488281,559.085999 672.039917,557.145203 686.805542,560.828308 
M673.537781,573.093750 
	C654.998901,573.784363 643.302124,587.144958 644.148132,606.664124 
	C645.143616,629.629944 670.287109,642.889954 689.806519,630.742981 
	C701.459595,623.491272 706.552673,609.684021 702.845764,595.393677 
	C699.380615,582.035522 688.967468,573.863403 673.537781,573.093750 
z"/>
<path fill="#000000" opacity="1.000000" stroke="none" 
	d="
M542.472961,584.769226 
	C547.429382,596.493896 547.898743,608.084839 543.783081,619.686584 
	C538.286316,635.181519 526.492432,643.274048 510.889496,646.194031 
	C497.700073,648.662354 484.320648,646.912415 471.030975,647.251343 
	C467.133636,647.350769 467.660065,644.368347 467.657471,641.932983 
	C467.636658,622.286987 467.646790,602.640930 467.650299,582.994934 
	C467.651398,576.836243 467.694489,570.677368 467.649902,564.519043 
	C467.632904,562.173645 468.310699,560.622681 470.992310,560.684509 
	C484.450989,560.994873 497.985657,559.393616 511.358429,561.643860 
	C525.388489,564.004761 535.746399,571.729309 542.472961,584.769226 
M521.350281,581.129639 
	C509.223267,571.062805 494.967102,575.127014 480.557770,574.264893 
	C482.454620,578.991211 482.089722,582.982849 482.094055,586.945312 
	C482.109375,600.915466 482.175079,614.886414 482.043457,628.855347 
	C482.009430,632.466003 483.199921,634.007446 486.939819,633.831848 
	C491.752716,633.605835 496.583893,633.799438 501.406281,633.738464 
	C515.018738,633.566406 524.839539,627.167786 529.626953,615.402832 
	C534.310303,603.893616 531.286011,590.674927 521.350281,581.129639 
z"/>
<path fill="#000000" opacity="1.000000" stroke="none" 
	d="
M351.936615,574.357605 
	C339.061401,574.345886 326.565643,574.086121 314.088959,574.461487 
	C308.338867,574.634460 308.581482,571.416260 308.609467,567.529419 
	C308.636932,563.715881 308.207550,560.429626 314.020538,560.524536 
	C332.664337,560.829224 351.316833,560.566101 369.964508,560.709595 
	C372.524353,560.729248 376.262726,558.952637 377.457642,562.549622 
	C378.650299,566.139893 378.706970,570.168213 375.978882,573.477966 
	C371.956421,578.357971 367.838470,583.159485 363.831818,588.052246 
	C351.618042,602.967224 339.438141,617.909912 326.983917,633.161682 
	C329.191223,634.286682 331.174713,633.988586 333.081421,633.991089 
	C346.568481,634.008484 360.063080,634.257629 373.539124,633.871033 
	C379.369537,633.703735 379.338531,636.701721 379.466095,640.971619 
	C379.601318,645.497131 378.638824,647.500916 373.511810,647.429810 
	C354.034210,647.159546 334.550049,647.397278 315.069824,647.249146 
	C312.344025,647.228394 308.230804,649.025940 307.136993,645.360962 
	C305.997833,641.543884 305.822937,637.216919 308.895081,633.528381 
	C316.458984,624.446960 323.848419,615.220215 331.304321,606.048950 
	C339.577789,595.872070 347.847229,585.691895 356.132629,575.495667 
	C354.974609,574.224060 353.558777,574.620605 351.936615,574.357605 
z"/>
<path fill="#000000" opacity="1.000000" stroke="none" 
	d="
M602.146851,478.903076 
	C595.314697,494.988159 583.183533,502.333466 566.338379,502.375244 
	C556.218567,502.400360 546.098694,502.379913 536.040344,502.379913 
	C535.466492,500.137482 537.114685,499.786652 538.062683,499.081512 
	C551.011902,489.449524 559.515137,476.941803 562.594727,460.993835 
	C563.010132,458.842712 563.662659,457.541321 565.983337,457.687378 
	C584.172974,458.831879 595.490417,448.763611 604.154602,434.337769 
	C604.475220,433.804016 604.958862,433.368134 606.265808,431.824493 
	C606.050781,448.304352 607.959900,463.692200 602.146851,478.903076 
z"/>
<path fill="#000000" opacity="1.000000" stroke="none" 
	d="
M471.807404,485.798950 
	C479.071716,479.089386 485.556488,472.073639 490.220947,463.784119 
	C493.016785,458.815460 496.389221,457.434967 501.798615,457.500885 
	C506.546326,457.558777 508.889679,458.064941 510.156433,463.550049 
	C513.212463,476.782440 523.984558,484.536713 537.496338,484.678192 
	C538.728516,484.691071 540.156067,483.947998 541.562012,485.726715 
	C535.375488,492.613953 527.724243,497.220612 519.007690,500.164368 
	C514.419922,501.713745 509.685272,502.431030 504.793396,502.440155 
	C488.501282,502.470581 472.209503,502.665253 455.917511,502.788605 
	C454.621033,502.798431 453.232941,503.023224 452.045898,501.246643 
	C458.422546,496.011597 465.967499,492.234009 471.807404,485.798950 
z"/>
<path fill="#000000" opacity="1.000000" stroke="none" 
	d="
M427.336487,601.000122 
	C427.335205,614.978210 427.202942,628.458252 427.410858,641.933105 
	C427.474426,646.052795 426.164398,647.826843 422.011383,647.308777 
	C420.864685,647.165710 419.668793,647.166626 418.522583,647.313354 
	C414.105621,647.878601 412.771301,645.919556 412.794495,641.609619 
	C412.928802,616.651062 412.945282,591.690247 412.725433,566.732727 
	C412.682434,561.850586 414.347534,560.415833 419.060425,560.566833 
	C427.328735,560.831726 427.347260,560.591980 427.351685,569.051208 
	C427.357147,579.534180 427.342377,590.017090 427.336487,601.000122 
z"/>
<path fill="#000000" opacity="1.000000" stroke="none" 
	d="
M580.744385,598.000000 
	C580.735962,586.847290 580.828979,576.193115 580.666687,565.542786 
	C580.610901,561.880798 581.935669,560.541565 585.605286,560.599365 
	C596.874939,560.776978 595.257385,559.808228 595.286011,570.148865 
	C595.351440,593.784363 595.288940,617.420166 595.262756,641.055847 
	C595.255859,647.272400 595.217041,646.995728 587.228210,647.357300 
	C582.241699,647.583008 580.534424,646.109558 580.652954,640.941772 
	C580.977173,626.801270 580.752808,612.648132 580.744385,598.000000 
z"/>
<path fill="#000000" opacity="1.000000" stroke="none" 
	d="
M463.765778,702.252686 
	C467.237793,706.521729 470.482300,710.515442 473.726837,714.509216 
	C474.168365,714.456238 474.609894,714.403259 475.051422,714.350281 
	C475.051422,709.540771 475.039246,704.731262 475.055603,699.921814 
	C475.066925,696.591797 475.053284,693.259521 475.174805,689.932739 
	C475.247498,687.941895 476.424835,686.922607 478.450928,687.023865 
	C480.262360,687.114380 481.199188,688.156738 481.203461,689.910889 
	C481.231842,701.569519 481.227997,713.228271 481.221771,724.886963 
	C481.221130,726.116699 480.913605,727.282471 479.565521,727.651184 
	C477.761780,728.144470 476.265900,727.436829 475.139191,726.047852 
	C471.257965,721.263306 467.420135,716.443542 463.560577,711.641357 
	C460.350464,707.647339 457.133057,703.659241 453.466278,699.106567 
	C452.008820,703.837708 452.451660,707.944885 452.369049,711.985474 
	C452.283966,716.147583 452.350342,720.312805 452.345673,724.476624 
	C452.343597,726.331360 451.812744,727.833130 449.633514,727.914429 
	C447.460297,727.995483 446.737366,726.605652 446.734039,724.701599 
	C446.713806,713.209351 446.707916,701.717102 446.712738,690.224854 
	C446.713318,688.844727 446.903473,687.494629 448.562927,687.100830 
	C450.587891,686.620422 452.118500,687.439392 453.351379,689.013733 
	C456.739838,693.340515 460.141724,697.656860 463.765778,702.252686 
z"/>
<path fill="#000000" opacity="1.000000" stroke="none" 
	d="
M416.155487,725.397339 
	C405.890717,730.290344 395.932800,728.920898 389.656769,721.988281 
	C383.454620,715.137329 382.454376,704.386597 387.278168,696.423828 
	C391.892731,688.806519 399.779083,685.297729 409.137695,686.698120 
	C417.231049,687.909180 423.590240,694.028809 425.757751,702.692078 
	C427.830322,710.975891 424.274078,719.607361 416.155487,725.397339 
M399.975586,721.779785 
	C408.371918,724.262207 415.774414,720.976135 418.863739,713.395081 
	C421.794678,706.202820 418.772949,697.567810 412.069122,693.978210 
	C405.237640,690.320374 397.145416,692.470642 392.804993,699.097107 
	C387.617676,707.016479 390.198517,715.971313 399.975586,721.779785 
z"/>
<path fill="#000000" opacity="1.000000" stroke="none" 
	d="
M538.265503,720.843872 
	C538.266479,721.819519 538.305176,722.321960 538.259766,722.816650 
	C538.100098,724.557007 538.854858,726.780701 536.621948,727.615784 
	C534.108032,728.555969 532.602478,726.696106 531.236877,724.988342 
	C525.629883,717.976196 520.064880,710.930481 514.462341,703.914795 
	C513.260254,702.409485 511.965942,700.977844 510.125885,698.823608 
	C508.877563,706.715881 509.535980,713.639587 509.342957,720.522888 
	C509.301025,722.018494 509.326263,723.515991 509.306152,725.012390 
	C509.282623,726.763123 508.531464,727.883850 506.646790,727.898071 
	C504.858459,727.911499 503.783173,727.011719 503.775787,725.198914 
	C503.727692,713.392822 503.713104,701.586487 503.709656,689.780273 
	C503.709290,688.523621 504.197815,687.478821 505.552612,687.162964 
	C507.594269,686.686951 509.078613,687.607910 510.307495,689.148499 
	C514.350891,694.217651 518.393127,699.287964 522.460999,704.337463 
	C525.250549,707.800110 528.081909,711.229065 531.471924,715.380066 
	C533.347778,708.162781 532.308167,701.721802 532.584717,695.375488 
	C532.649841,693.881592 532.593750,692.382568 532.596008,690.885864 
	C532.598694,689.066284 532.236694,687.012756 535.046631,686.944092 
	C537.851318,686.875549 538.233643,688.727966 538.233704,690.931824 
	C538.233765,700.743591 538.252563,710.555298 538.265503,720.843872 
z"/>
<path fill="#000000" opacity="1.000000" stroke="none" 
	d="
M564.292297,686.897156 
	C571.589600,686.842773 578.416260,686.716797 585.238770,686.833557 
	C587.625244,686.874390 591.260559,685.703918 591.118774,690.044006 
	C590.980652,694.272766 587.387329,692.956543 585.000488,693.057190 
	C580.513489,693.246399 576.006226,693.291077 571.521057,693.090942 
	C567.350708,692.904846 566.990967,695.347900 567.094055,698.520874 
	C567.192749,701.557678 566.675354,704.764771 571.406372,704.599243 
	C576.061646,704.436279 580.726990,704.578796 585.387573,704.543213 
	C587.355957,704.528198 589.169067,704.602661 589.114258,707.290039 
	C589.063171,709.793457 587.389160,710.232788 585.378479,710.242615 
	C580.717468,710.265320 576.048279,710.462646 571.397705,710.252014 
	C566.541870,710.032104 567.130371,713.264893 567.197632,716.263062 
	C567.265564,719.289307 566.220520,722.930908 571.506775,722.668274 
	C576.988159,722.395996 582.489197,722.541504 587.980347,722.435364 
	C589.951843,722.397278 591.852905,722.431824 591.874512,725.030151 
	C591.894287,727.410583 590.188293,728.090515 588.156982,728.100647 
	C580.333618,728.139832 572.510010,728.135681 564.686523,728.156372 
	C561.949768,728.163574 560.864319,726.751282 560.866211,724.091370 
	C560.874023,713.104675 560.815613,702.118042 560.770264,691.131348 
	C560.761292,688.967407 561.072632,687.071350 564.292297,686.897156 
z"/>
<path fill="#000000" opacity="1.000000" stroke="none" 
	d="
M612.717407,721.164917 
	C604.598694,708.041199 607.879578,693.847107 620.182800,688.259705 
	C627.391296,684.986023 634.479309,685.730713 641.107178,689.969910 
	C642.736023,691.011841 645.528381,691.990295 643.725769,694.867737 
	C641.930847,697.732849 640.045715,696.306824 637.914734,694.888367 
	C630.203552,689.755310 620.852051,691.888062 616.330200,699.627441 
	C611.770935,707.431091 614.529907,717.453003 622.622131,721.397888 
	C628.136230,724.085999 633.634949,723.591980 638.544983,719.682556 
	C640.396606,718.208374 642.150452,716.899780 643.993774,719.418274 
	C646.023743,722.191711 643.346008,723.287598 641.782166,724.471985 
	C632.834045,731.249146 621.406311,730.011169 612.717407,721.164917 
z"/>
<path fill="#000000" opacity="1.000000" stroke="none" 
	d="
M341.378815,724.812927 
	C331.693420,716.434814 329.896820,703.987671 336.764587,694.731384 
	C343.474213,685.688232 356.117065,683.498413 365.700714,689.851501 
	C367.267181,690.889893 370.200073,691.699280 368.174042,694.681763 
	C366.510498,697.130737 364.849121,696.290222 362.747589,694.889832 
	C355.904297,690.330017 347.315918,691.440247 342.471771,697.241516 
	C337.748199,702.898376 337.871582,712.562500 342.736359,717.969360 
	C347.991791,723.810486 356.177551,724.674072 363.030334,719.969910 
	C364.906799,718.681824 366.577301,717.096252 368.423706,719.778381 
	C370.158447,722.298279 367.932312,723.448059 366.415985,724.516785 
	C358.319946,730.222961 350.033844,730.030457 341.378815,724.812927 
z"/>
<path fill="#000000" opacity="1.000000" stroke="none" 
	d="
M460.972656,481.009705 
	C452.205475,488.278534 442.919189,494.060944 432.935150,498.746674 
	C424.609253,502.654114 415.324799,498.984711 411.102997,489.425690 
	C430.414062,488.073212 448.742218,483.620178 466.802063,474.019501 
	C465.686523,478.170990 462.999176,479.077515 460.972656,481.009705 
z"/>
<path fill="#000000" opacity="1.000000" stroke="none" 
	d="
M624.000000,672.113159 
	C589.046570,672.170166 554.588745,672.475220 520.157227,671.296692 
	C523.405945,668.156799 658.467773,667.896912 665.137817,670.490601 
	C651.696472,673.042725 638.052734,671.702454 624.000000,672.113159 
z"/>
<path fill="#000000" opacity="1.000000" stroke="none" 
	d="
M373.003967,672.064453 
	C365.826996,671.807312 359.055420,672.561462 351.951691,670.475586 
	C357.651825,668.039795 486.279510,668.055847 489.928223,670.360840 
	C489.553986,670.870728 489.202332,671.789734 488.825958,671.799988 
	C450.387787,672.845886 411.944458,671.979614 373.003967,672.064453 
z"/>
<path fill="#000000" opacity="1.000000" stroke="none" 
	d="
M665.169922,686.804443 
	C672.135681,686.796448 678.626831,686.681580 685.111206,686.840942 
	C687.477173,686.899048 691.191406,685.651917 691.088806,689.939392 
	C690.988770,694.124451 687.265015,692.482544 684.930542,692.972290 
	C684.611450,693.039246 684.260803,693.028015 683.935181,692.980957 
	C679.144836,692.289185 677.959045,694.689514 678.103882,699.057190 
	C678.362915,706.868408 678.225403,714.694092 678.179810,722.513306 
	C678.166748,724.762024 678.668457,727.644348 675.223267,727.792969 
	C671.410461,727.957336 671.810181,724.911560 671.795227,722.462769 
	C671.743591,713.978088 671.663086,705.491089 671.812073,697.008850 
	C671.869263,693.751221 670.790222,692.377808 667.465698,692.834167 
	C665.997437,693.035706 664.472229,692.923950 662.980713,692.830078 
	C660.947632,692.702026 658.808105,692.587158 658.880859,689.685059 
	C658.944580,687.139343 660.742432,686.867310 662.696167,686.826599 
	C663.361511,686.812683 664.027100,686.812561 665.169922,686.804443 
z"/>
<path fill="#000000" opacity="1.000000" stroke="none" 
	d="
M509.328247,664.491333 
	C512.176880,666.792908 513.173218,669.425232 512.414062,672.649170 
	C511.427246,676.839661 507.583221,679.251770 503.370880,678.352539 
	C499.448944,677.515320 496.985077,673.424805 497.830231,669.154053 
	C498.617706,665.174866 502.236267,662.585144 506.232239,663.247437 
	C507.189362,663.406067 508.086975,663.923767 509.328247,664.491333 
z"/>
</svg>